<?xml version="1.0" standalone="no"?><!DOCTYPE svg PUBLIC "-//W3C//DTD SVG 1.1//EN" "http://www.w3.org/Graphics/SVG/1.1/DTD/svg11.dtd"><svg t="1538114125072" class="icon" style="" viewBox="0 0 1024 1024" version="1.1" xmlns="http://www.w3.org/2000/svg" p-id="788" xmlns:xlink="http://www.w3.org/1999/xlink" width="200" height="200"><defs><style type="text/css"></style></defs><path d="M422.4 721.493333a85.333333 85.333333 0 0 1-67.84-35.413333 85.333333 85.333333 0 0 0 67.84 35.413333zM259.413333 178.773333z m0 0a81.493333 81.493333 0 0 0-66.133333-33.28 81.493333 81.493333 0 0 1 66.133333 33.28z" fill="" p-id="789"></path><path d="M192.853333 124.16h-85.333333a21.333333 21.333333 0 0 0-21.333333 21.333333 21.76 21.76 0 0 0 21.333333 21.333334h85.333333A61.013333 61.013333 0 0 1 256 219.306667l63.573333 434.773333a103.68 103.68 0 0 0 102.826667 88.746667h469.333333a21.76 21.76 0 0 0 21.333334-21.333334 21.333333 21.333333 0 0 0-21.333334-21.333333h-469.333333a60.586667 60.586667 0 0 1-60.586667-52.48L295.68 213.333333a103.253333 103.253333 0 0 0-102.826667-89.173333z" fill="" p-id="790"></path><path d="M814.506667 631.893333a66.133333 66.133333 0 0 0 42.666666-24.746666 66.133333 66.133333 0 0 1-42.666666 24.746666z m99.413333-305.92a66.133333 66.133333 0 0 0-8.106667-42.666666 66.133333 66.133333 0 0 1 8.106667 42.666666z m-64-75.093333z" fill="" p-id="791"></path><path d="M849.493333 229.546667h-369.493333a21.333333 21.333333 0 0 0-21.333333 21.333333 21.76 21.76 0 0 0 21.333333 21.333333h369.493333a42.666667 42.666667 0 0 1 33.706667 15.36 45.226667 45.226667 0 0 1 9.386667 35.84l-44.8 251.733334a42.666667 42.666667 0 0 1-40.533334 35.84l-395.093333 23.893333a20.906667 20.906667 0 0 0-20.053333 22.613333 21.76 21.76 0 0 0 21.333333 20.053334l397.226667-23.893334a85.333333 85.333333 0 0 0 79.786666-70.826666l42.666667-251.733334a85.333333 85.333333 0 0 0-85.333333-101.546666zM343.893333 272.213333h53.333334a21.333333 21.333333 0 0 0 21.333333-21.333333 21.333333 21.333333 0 0 0-21.333333-21.333333H343.893333a21.333333 21.333333 0 0 0-21.333333 21.333333 21.76 21.76 0 0 0 21.333333 21.333333z" fill="" p-id="792"></path><path d="M397.226667 229.546667H343.893333a21.333333 21.333333 0 0 0-21.333333 21.333333 21.76 21.76 0 0 0 21.333333 21.333333h53.333334a21.333333 21.333333 0 0 0 21.333333-21.333333 21.333333 21.333333 0 0 0-21.333333-21.333333zM485.546667 829.013333a49.92 49.92 0 0 0-99.84 0 49.92 49.92 0 0 1 99.84 0z" fill="" p-id="793"></path><path d="M435.626667 757.76a71.253333 71.253333 0 1 0 71.253333 71.253333 71.253333 71.253333 0 0 0-71.253333-71.253333z m0 99.413333a28.16 28.16 0 0 1-28.586667-28.16 28.586667 28.586667 0 1 1 57.173333 0 28.16 28.16 0 0 1-28.586666 28.16zM876.8 829.013333a49.92 49.92 0 0 0-99.84 0 49.92 49.92 0 0 1 99.84 0z" fill="" p-id="794"></path><path d="M826.88 757.76a71.253333 71.253333 0 1 0 71.253333 71.253333 71.253333 71.253333 0 0 0-71.253333-71.253333z m0 99.413333a28.16 28.16 0 0 1-28.586667-28.16 28.586667 28.586667 0 1 1 57.173334 0 28.16 28.16 0 0 1-28.586667 28.16z" fill="" p-id="795"></path></svg>